<?xml version="1.0" encoding="UTF-8" standalone="no"?>
<!DOCTYPE svg PUBLIC "-//W3C//DTD SVG 1.1//EN" "http://www.w3.org/Graphics/SVG/1.1/DTD/svg11.dtd">
<svg width="100%" height="100%" viewBox="0 0 1896 501" version="1.1" xmlns="http://www.w3.org/2000/svg" xmlns:xlink="http://www.w3.org/1999/xlink" xml:space="preserve" xmlns:serif="http://www.serif.com/" style="fill-rule:evenodd;clip-rule:evenodd;stroke-linejoin:round;stroke-miterlimit:2;">
    <g transform="matrix(1,0,0,1,-16.392315,-579.239594)">
        <g transform="matrix(3.795565,0,0,3.467173,-2668.909675,-1322.312588)">
            <path d="M1073.013,662.988C1075.362,662.993 1077.711,662.998 1080.737,662.819C1081.937,662.087 1082.461,661.539 1082.984,660.99C1082.984,660.99 1082.995,660.998 1083.285,660.817C1088.242,654.475 1087.945,647.343 1086.929,640.343C1086.735,639.003 1083.451,637.451 1081.432,637.177C1077.429,636.633 1075.905,634.638 1075.991,630.874C1076.041,628.709 1076.056,626.541 1076.011,624.375C1075.92,619.987 1078.056,617.848 1082.417,618.052C1088.07,618.316 1093.718,618.714 1099.372,618.974C1105.29,619.247 1106.805,620.463 1106.853,626.473C1106.998,644.805 1106.899,663.139 1106.978,681.471C1106.998,686.168 1104.724,687.837 1100.208,688.05C1095.438,688.275 1090.711,689.31 1085.949,689.848C1079.388,690.589 1072.733,692.158 1066.26,691.633C1056.596,690.85 1048.598,686.247 1043.347,677.502C1039.109,670.446 1036.952,662.974 1036.983,654.749C1037.057,634.583 1036.847,614.414 1037.092,594.251C1037.168,587.987 1037.93,581.66 1039.094,575.497C1041.279,563.932 1050.885,555.424 1062.351,552.734C1071.395,550.612 1080.128,550.733 1088.982,553.016C1088.982,553.016 1089,553 1089.188,553.278C1090.853,554.893 1092.257,556.321 1093.816,557.553C1100.293,562.669 1103.761,569.445 1105.083,577.473C1106.065,583.446 1105.18,585.089 1099.574,587.161C1098.485,587.563 1097.339,587.813 1096.219,588.133C1088.768,590.261 1088.768,590.261 1085.37,583.515C1081.898,576.622 1074.745,575.498 1070.226,581.678C1068.01,584.709 1066.301,588.88 1066.223,592.574C1065.896,608.204 1066.186,623.851 1066.492,639.487C1066.529,641.356 1068.042,643.196 1068.87,645.049C1068.9,647.735 1068.929,650.422 1068.887,653.879C1068.446,658.319 1068.928,661.56 1073.013,662.988Z" style="fill:rgb(165,188,212);fill-rule:nonzero;"/>
        </g>
        <g transform="matrix(3.795565,0,0,3.467173,-2668.909675,-1322.312588)">
            <path d="M837.033,597.105C838.403,597.1 839.774,597.095 841.772,597.356C844.697,600.368 850.097,599.934 849.945,605.252C849.789,610.742 849.935,616.24 849.9,621.734C849.878,625.122 848.075,626.426 844.756,626.205C841.938,626.018 839.09,625.987 836.27,626.145C830.3,626.479 827.426,629.245 827.172,635.206C826.938,640.692 826.978,646.197 827.109,651.688C827.282,658.961 829.237,660.878 836.414,660.965C843.741,661.053 851.071,660.896 858.395,661.049C864.885,661.185 867.33,664.2 866.493,670.707C866.069,674.007 865.424,677.28 865.035,680.584C864.291,686.896 863.295,687.932 856.839,687.961C843.017,688.023 829.194,688.016 815.372,687.975C807.978,687.954 806.798,686.986 807.088,679.582C807.398,671.637 808.733,663.724 808.885,655.783C809.184,640.161 809.013,624.53 808.962,608.902C808.911,592.92 809.013,576.93 808.496,560.961C808.368,557.011 809.477,555.742 812.895,555.693C823.021,555.549 833.15,555.589 843.273,555.336C848.359,555.208 853.513,555.022 858.493,554.096C863.95,553.081 867.165,556.016 866.171,561.509C865.415,565.687 864.981,569.975 864.943,574.22C864.889,580.213 863.551,581.892 857.348,581.98C850.688,582.074 844.025,582.001 837.364,582.027C828.281,582.062 826.294,584.03 827.263,592.932C827.502,595.124 828.803,598.237 830.461,598.945C832.092,599.641 834.798,597.821 837.033,597.105Z" style="fill:rgb(165,188,214);fill-rule:nonzero;"/>
        </g>
        <g transform="matrix(3.795565,0,0,3.467173,-2668.909675,-1322.312588)">
            <path d="M892.271,596.651C888.429,583.569 890.639,571.759 898.358,561.281C905.556,551.511 916.176,548.095 927.83,548.472C940.625,548.887 950.065,555.4 955.152,567.06C957.346,572.09 958.22,577.912 958.532,583.44C958.657,585.654 956.15,588.861 953.971,590.181C949.74,592.746 944.925,594.374 940.294,596.245C935.961,597.996 934.145,596.908 933.404,592.257C933.169,590.782 933.207,589.266 933.069,587.773C932.59,582.564 930.126,580.457 925.285,581.086C920.991,581.644 918.266,585.404 920.505,590.092C923.831,597.052 928.049,603.754 932.86,609.79C938.442,616.791 945.404,622.678 951.183,629.541C961.537,641.837 962.192,668.321 950.175,681.048C935.451,696.641 905.919,697.116 894.309,680.671C886.591,669.74 885.202,656.93 886.49,643.887C886.628,642.488 888.909,640.287 890.299,640.205C895.735,639.885 901.234,640.042 906.657,640.565C907.826,640.678 909.232,642.901 909.733,644.415C910.773,647.554 911.156,650.902 912.032,654.103C913.34,658.879 917.429,661.524 922.224,660.915C926.425,660.381 928.963,657.099 929.036,651.879C929.126,645.36 926.541,639.961 922.069,635.294C915.045,627.965 907.714,620.869 901.325,613.014C897.529,608.346 895.288,602.414 892.271,596.651Z" style="fill:rgb(165,188,214);fill-rule:nonzero;"/>
        </g>
        <g transform="matrix(3.795565,0,0,3.467173,-2668.909675,-1322.312588)">
            <path d="M982.137,666C982.126,630.542 982.101,595.583 982.114,560.625C982.118,552.025 982.996,551.191 991.548,551.137C994.71,551.116 997.873,551.188 1001.036,551.159C1005.513,551.118 1007.903,553.177 1007.886,557.773C1007.881,559.104 1007.942,560.436 1007.942,561.768C1007.948,601.553 1007.958,641.339 1007.945,681.125C1007.942,690.307 1007.416,690.812 998.426,690.87C995.097,690.892 991.766,690.816 988.439,690.897C983.992,691.006 982.114,688.822 982.171,684.478C982.25,678.486 982.156,672.493 982.137,666Z" style="fill:rgb(165,188,214);fill-rule:nonzero;"/>
        </g>
        <g transform="matrix(3.795565,0,0,3.467173,-2668.909675,-1322.312588)">
            <path d="M1206.039,617C1206.292,636.984 1206.499,656.468 1206.816,675.95C1206.995,687.022 1197.976,692.552 1188.26,686.906C1186.194,685.706 1184.699,682.977 1183.668,680.633C1177.165,665.854 1170.925,650.958 1164.422,636.179C1163.671,634.473 1161.832,633.247 1160.497,631.798C1159.688,633.626 1158.222,635.436 1158.172,637.284C1157.771,652.264 1157.509,667.25 1157.505,682.235C1157.504,686.104 1156.134,687.639 1152.416,687.956C1140.277,688.988 1137.959,686.823 1138.083,674.232C1138.388,643.587 1138.745,612.942 1138.911,582.296C1138.936,577.682 1137.835,573.071 1137.648,568.443C1137.523,565.346 1137.911,562.189 1138.45,559.125C1138.652,557.981 1139.724,556.704 1140.755,556.039C1145.231,553.154 1158.784,556.911 1160.949,561.723C1164.842,570.38 1168.589,579.105 1172.23,587.871C1175.736,596.313 1178.979,604.865 1182.486,613.307C1182.913,614.334 1184.265,614.978 1185.188,615.8C1186.184,614.599 1187.912,613.472 1188.041,612.184C1188.436,608.232 1188.254,604.219 1188.233,600.23C1188.167,587.765 1188.158,575.298 1187.944,562.835C1187.86,557.978 1189.839,555.661 1194.75,555.929C1195.908,555.992 1197.078,555.823 1198.244,555.769C1204.675,555.474 1205.982,556.586 1206.005,563.011C1206.072,580.841 1206.035,598.67 1206.039,617Z" style="fill:rgb(165,188,214);fill-rule:nonzero;"/>
        </g>
        <g transform="matrix(3.795565,0,0,3.467173,-2668.909675,-1322.312588)">
            <path d="M778.164,610.378C778.155,619.168 779.111,627.625 777.99,635.798C775.985,650.418 776.162,665.884 765.142,677.894C759.185,684.386 752.203,688.145 743.236,688.011C734.6,687.883 725.96,687.974 717.322,687.94C708.531,687.906 707.624,686.508 707.751,677.83C708.044,657.674 707.982,637.512 707.941,617.353C707.903,598.549 707.823,579.742 707.487,560.942C707.415,556.915 708.684,555.689 712.576,555.687C724.531,555.683 736.502,554.97 748.431,555.441C752.227,555.591 756.284,558.056 759.578,560.377C769.648,567.472 773.735,578.202 775.791,589.774C776.973,596.421 777.417,603.199 778.164,610.378M727.151,665.118C728.211,665.528 729.269,666.288 730.33,666.292C739.155,666.319 747.96,659.497 749.444,650.838C750.73,643.335 751.826,635.685 751.813,628.102C751.795,617.504 750.68,606.906 750.013,596.31C749.466,587.611 745.816,581.25 737.299,577.776C728.348,574.125 725.084,575.874 725.063,585.415C725.009,609.237 725.001,633.06 725.122,656.882C725.135,659.445 726.111,662.003 727.151,665.118Z" style="fill:rgb(165,188,214);fill-rule:nonzero;"/>
        </g>
    </g>
</svg>
